<svg xmlns:xlink="http://www.w3.org/1999/xlink" xmlns="http://www.w3.org/2000/svg" _ngcontent-rz-client-c98="" width="16" height="16"><defs><symbol viewBox="0 0 24 24" id="icon-close-modal">
    <path d="m18.295 7.11511c.3894-.38936.3894-1.02064 0-1.41-.3893-.38936-1.0206-.38936-1.41 0l-4.885 4.88499-4.88499-4.88499c-.38936-.38936-1.02063-.38936-1.41 0-.38936.38936-.38936 1.02064 0 1.41l4.88499 4.88499-4.88499 4.885c-.38936.3894-.38936 1.0206 0 1.41.38937.3894 1.02064.3894 1.41 0l4.88499-4.885 4.885 4.885c.3894.3894 1.0207.3894 1.41 0 .3894-.3894.3894-1.0206 0-1.41l-4.885-4.885z"></path>
</symbol></defs><use _ngcontent-rz-client-c98="" xmlns:xlink="http://www.w3.org/1999/xlink" xlink:href="#icon-close-modal" fill="#3E77AA"></use></svg>