<svg xmlns:xlink="http://www.w3.org/1999/xlink" xmlns="http://www.w3.org/2000/svg" width="24" height="24"><defs><symbol viewBox="0 0 24 24" id="icon-fat-3361"><path clip-rule="evenodd" d="m12 2h-10v16h10zm-10-2c-1.104569 0-2 .895431-2 2v16c0 1.1046.895431 2 2 2h10c1.1046 0 2-.8954 2-2v-16c0-1.104569-.8954-2-2-2z" fill-rule="evenodd" transform="translate(5 2)"></path><path d="m2 1c0 .55228-.44772 1-1 1-.552285 0-1-.44772-1-1 0-.552285.447715-1 1-1 .55228 0 1 .447715 1 1z" transform="translate(10.9932 17)"></path></symbol></defs><use href="#icon-fat-3361" fill="#ADB8C8"></use></svg>