<svg width="0" height="0" class="hidden">

  <symbol version="1.1" id="ipad" xmlns="http://www.w3.org/2000/svg" xmlns:xlink="http://www.w3.org/1999/xlink" x="0px" y="0px" xml:space="preserve" viewBox="0 0 472.615 472.615">

    <g>

      <g>

        <path d="M437.333,0H35.282C18.968,0,5.744,13.223,5.744,29.538v413.538c0,16.315,13.224,29.539,29.538,29.539h402.051

			c16.314,0,29.538-13.223,29.538-29.539V29.538C466.872,13.223,453.647,0,437.333,0z M236.308,441.464

			c-13.822,0-25.026-11.204-25.026-25.024c0-13.822,11.204-25.026,25.026-25.026c13.821,0,25.025,11.204,25.025,25.026

			C261.333,430.26,250.129,441.464,236.308,441.464z M417.645,359.003H54.972V49.229h362.673V359.003z"></path>

      </g>

    </g>

    <g></g>

    <g></g>

    <g></g>

    <g></g>

    <g></g>

    <g></g>

    <g></g>

    <g></g>

    <g></g>

    <g></g>

    <g></g>

    <g></g>

    <g></g>

    <g></g>

    <g></g>

  </symbol>

</svg>