<svg width="0" height="0" class="hidden">

  <symbol version="1.1" id="monitor" xmlns="http://www.w3.org/2000/svg" xmlns:xlink="http://www.w3.org/1999/xlink" x="0px" y="0px" xml:space="preserve" viewBox="0 0 511.999 511.999">

    <g>

      <g>

        <path d="M495.202,0.637H16.798C7.521,0.637,0,8.158,0,17.435v309.344c0,9.277,7.521,16.798,16.798,16.798h166.261v86.409h-39.235

			c-9.251,0-16.762,7.481-16.798,16.732l-0.187,47.781c-0.018,4.466,1.745,8.755,4.897,11.921c3.152,3.164,7.435,4.943,11.901,4.943

			h224.632c9.277,0,16.798-7.521,16.798-16.798v-47.781c0-9.277-7.521-16.798-16.798-16.798h-39.329v-86.409h166.262

			c9.277,0,16.798-7.521,16.798-16.798V17.435C512,8.156,504.479,0.637,495.202,0.637z M351.471,463.581v14.185H160.5l0.055-14.185

			C169.798,463.581,345.213,463.581,351.471,463.581z M216.654,429.986v-86.409h78.69v86.409H216.654z M478.404,309.98

			c-14.128,0-436.228,0-444.809,0v-23.703h444.809V309.98z M478.404,252.682H33.596V34.232h444.809V252.682z"></path>

      </g>

    </g>

    <g></g>

    <g></g>

    <g></g>

    <g></g>

    <g></g>

    <g></g>

    <g></g>

    <g></g>

    <g></g>

    <g></g>

    <g></g>

    <g></g>

    <g></g>

    <g></g>

    <g></g>

  </symbol>

</svg>