<svg xmlns:xlink="http://www.w3.org/1999/xlink" xmlns="http://www.w3.org/2000/svg"><defs><symbol viewBox="0 0 24 24" id="icon-fat-2416"><path clip-rule="evenodd" d="m2 2v10h12v-10zm-1-2c-.552285 0-1 .447715-1 1v13h16v-13c0-.552285-.4477-1-1-1z" fill-rule="evenodd" transform="translate(4 3)"></path><path clip-rule="evenodd" d="m2 2v2h16v-2zm-1-2c-.552285 0-1 .447715-1 1v4c0 .55228.447715 1 1 1h18c.5523 0 1-.44772 1-1v-4c0-.552285-.4477-1-1-1z" fill-rule="evenodd" transform="translate(2 15)"></path><path d="m2 1c0 .55228-.44772 1-1 1-.552285 0-1-.44772-1-1 0-.552285.447715-1 1-1 .55228 0 1 .447715 1 1z" transform="translate(10 6)"></path><path d="m2 1c0 .55228-.44772 1-1 1-.552285 0-1-.44772-1-1 0-.552285.447715-1 1-1 .55228 0 1 .447715 1 1z" transform="translate(7 6)"></path><path d="m2 1c0 .55228-.44772 1-1 1-.552285 0-1-.44772-1-1 0-.552285.447715-1 1-1 .55228 0 1 .447715 1 1z" transform="translate(7 9)"></path></symbol></defs><use href="#icon-fat-2416" fill="#ADB8C8"></use></svg>